HIERARCHY
ROOT joint_0
{
	OFFSET 0.000000 0.000000 0.000000
	CHANNELS 6 Xposition Yposition Zposition Zrotation Yrotation Xrotation 
	JOINT joint_1
	{
		OFFSET -0.613770 -1.125488 108.300049
		CHANNELS 3 Zrotation Yrotation Xrotation
		JOINT joint_2
		{
			OFFSET -10.925537 -0.900513 98.259033
			CHANNELS 3 Zrotation Yrotation Xrotation
			JOINT joint_3
			{
				OFFSET -11.287842 0.313599 98.110962
				CHANNELS 3 Zrotation Yrotation Xrotation
				JOINT joint_4
				{
					OFFSET -2.124268 2.484680 136.491943
					CHANNELS 3 Zrotation Yrotation Xrotation
					JOINT joint_5
					{
						OFFSET 16.640869 1.801270 81.862061
						CHANNELS 3 Zrotation Yrotation Xrotation
						End Site
						{
							OFFSET 0.000000 0.000000 0.000000
						}
					}
				}
				JOINT joint_6
				{
					OFFSET 0.447998 -28.248108 77.258057
					CHANNELS 3 Zrotation Yrotation Xrotation
					JOINT joint_7
					{
						OFFSET 7.918701 -130.256348 -24.086060
						CHANNELS 3 Zrotation Yrotation Xrotation
						JOINT joint_8
						{
							OFFSET 62.431885 -29.384277 -258.572021
							CHANNELS 3 Zrotation Yrotation Xrotation
							JOINT joint_9
							{
								OFFSET 53.743164 -21.907532 -238.024963
								CHANNELS 3 Zrotation Yrotation Xrotation
								End Site
								{
									OFFSET 0.000000 0.000000 0.000000
								}
							}
						}
					}
				}
				JOINT joint_10
				{
					OFFSET -2.846924 31.052063 76.130981
					CHANNELS 3 Zrotation Yrotation Xrotation
					JOINT joint_11
					{
						OFFSET 9.073730 131.055603 -18.752930
						CHANNELS 3 Zrotation Yrotation Xrotation
						JOINT joint_12
						{
							OFFSET 52.981201 29.883301 -260.613037
							CHANNELS 3 Zrotation Yrotation Xrotation
							JOINT joint_13
							{
								OFFSET 62.237793 15.935547 -236.423035
								CHANNELS 3 Zrotation Yrotation Xrotation
								End Site
								{
									OFFSET 0.000000 0.000000 0.000000
								}
							}
						}
					}
				}
			}
		}
	}
	JOINT joint_14
	{
		OFFSET 22.046143 -72.816772 -98.122925
		CHANNELS 3 Zrotation Yrotation Xrotation
		JOINT joint_15
		{
			OFFSET -23.673828 -54.692932 -469.927032
			CHANNELS 3 Zrotation Yrotation Xrotation
			JOINT joint_16
			{
				OFFSET -34.875244 -46.505249 -395.890999
				CHANNELS 3 Zrotation Yrotation Xrotation
				JOINT joint_17
				{
					OFFSET 168.486328 14.224182 -74.182999
					CHANNELS 3 Zrotation Yrotation Xrotation
					End Site
					{
						OFFSET 0.000000 0.000000 0.000000
					}
				}
			}
		}
	}
	JOINT joint_18
	{
		OFFSET -1.731934 82.408569 -92.846924
		CHANNELS 3 Zrotation Yrotation Xrotation
		JOINT joint_19
		{
			OFFSET -6.908936 32.203369 -472.535034
			CHANNELS 3 Zrotation Yrotation Xrotation
			JOINT joint_20
			{
				OFFSET -13.963135 23.196533 -399.207993
				CHANNELS 3 Zrotation Yrotation Xrotation
				JOINT joint_21
				{
					OFFSET 168.417725 19.834229 -73.041004
					CHANNELS 3 Zrotation Yrotation Xrotation
					End Site
					{
						OFFSET 0.000000 0.000000 0.000000
					}
				}
			}
		}
	}
}
MOTION
Frames: 6
Frame Time: 0.016667
-2896.398682 963.984009 1057.244995 -0.659078 -0.794024 -0.490008 0.552164 1.691289 1.652652 0.312201 -0.314255 -0.352556 0.375780 0.400984 0.217583 -0.002245 0.121885 -0.002179 0.000000 0.000000 0.000000 0.145581 0.555387 -0.829125 -0.003051 0.663197 0.491642 0.407789 -1.168709 1.332897 0.000000 0.000000 0.000000 0.207969 0.059524 -2.593055 -0.045915 -0.146137 -0.128844 0.107330 0.440036 0.294845 0.000000 0.000000 0.000000 0.230570 -0.516053 1.032686 0.126798 0.807664 0.028447 0.140827 0.707046 0.002252 0.000000 0.000000 0.000000 0.079033 -0.636789 1.344975 0.253162 1.488688 -0.694820 0.153365 0.220828 0.040468 0.000000 0.000000 0.000000 
-2896.661621 963.640015 1057.173950 -0.655849 -0.945417 -0.458036 0.548911 1.878812 1.635572 0.309572 -0.342177 -0.347334 0.371840 0.442491 0.213239 -0.009517 0.127512 0.032912 0.000000 0.000000 0.000000 0.145370 0.553509 -0.825514 -0.011606 0.660342 0.453759 0.404661 -1.165392 1.320317 0.000000 0.000000 0.000000 0.181134 0.005636 -2.647404 -0.061287 -0.200577 -0.150771 0.121278 0.566055 0.315576 0.000000 0.000000 0.000000 0.210476 -0.364932 1.026697 0.124787 0.805786 0.017548 0.137393 0.710389 0.000456 0.000000 0.000000 0.000000 0.082323 -0.494621 1.335038 0.247931 1.505856 -0.701829 0.146388 0.211288 0.038565 0.000000 0.000000 0.000000 
-2896.910156 963.294434 1057.087036 -0.647392 -1.113185 -0.420319 0.543326 2.083381 1.621031 0.303685 -0.373928 -0.346314 0.365559 0.488266 0.212868 -0.014863 0.148896 0.056825 0.000000 0.000000 0.000000 0.150842 0.550053 -0.816599 -0.022261 0.656499 0.407265 0.402112 -1.167368 1.308165 0.000000 0.000000 0.000000 0.162473 -0.052633 -2.701438 -0.080929 -0.259786 -0.192655 0.136499 0.691099 0.341426 0.000000 0.000000 0.000000 0.186227 -0.193694 1.015293 0.120954 0.802275 0.005398 0.131663 0.716095 -0.002551 0.000000 0.000000 0.000000 0.084792 -0.334983 1.318329 0.240707 1.524837 -0.707825 0.137186 0.198627 0.036067 0.000000 0.000000 0.000000 
-2897.105957 962.933289 1056.952026 -0.635638 -1.289920 -0.375563 0.533220 2.293448 1.589719 0.295582 -0.407337 -0.340842 0.356209 0.533369 0.209572 -0.020879 0.181887 0.082750 0.000000 0.000000 0.000000 0.152702 0.545609 -0.804873 -0.028595 0.650956 0.375957 0.396045 -1.156720 1.285476 0.000000 0.000000 0.000000 0.146187 -0.099448 -2.734517 -0.100731 -0.306347 -0.236076 0.135338 0.777236 0.314975 0.000000 0.000000 0.000000 0.163368 -0.009217 0.997808 0.119898 0.798212 -0.008185 0.127664 0.728978 -0.005402 0.000000 0.000000 0.000000 0.087262 -0.161582 1.296184 0.232353 1.541368 -0.716375 0.126848 0.184662 0.033229 0.000000 0.000000 0.000000 
-2897.244141 962.542847 1056.743042 -0.623048 -1.461167 -0.321838 0.518552 2.490994 1.532414 0.286511 -0.440678 -0.330052 0.345220 0.575278 0.205660 -0.027733 0.231182 0.111016 0.000000 0.000000 0.000000 0.140830 0.541257 -0.794526 -0.027650 0.643306 0.370947 0.385010 -1.126374 1.248675 0.000000 0.000000 0.000000 0.128990 -0.125201 -2.736682 -0.119255 -0.329524 -0.277377 0.107527 0.795715 0.204538 0.000000 0.000000 0.000000 0.146591 0.172037 0.973759 0.124470 0.793159 -0.024141 0.126676 0.761671 -0.008601 0.000000 0.000000 0.000000 0.090084 0.013487 1.268915 0.223603 1.548272 -0.730344 0.116830 0.176239 0.029877 0.000000 0.000000 0.000000 
-2897.328613 962.136963 1056.485962 -0.608297 -1.641198 -0.261129 0.499687 2.692643 1.457875 0.275722 -0.474088 -0.313955 0.331584 0.616357 0.198963 -0.034986 0.292002 0.139972 0.000000 0.000000 0.000000 0.124595 0.535718 -0.781807 -0.022392 0.633637 0.380986 0.370540 -1.083247 1.201803 0.000000 0.000000 0.000000 0.112939 -0.139526 -2.719074 -0.137729 -0.340013 -0.319343 0.063379 0.774832 0.042151 0.000000 0.000000 0.000000 0.131403 0.366292 0.943495 0.131969 0.787460 -0.041023 0.127522 0.802229 -0.011659 0.000000 0.000000 0.000000 0.093465 0.202438 1.236292 0.214259 1.552495 -0.747013 0.106196 0.166278 0.026441 0.000000 0.000000 0.000000 
